<svg width="25" height="25" viewBox="0 0 25 25" fill="none" xmlns="http://www.w3.org/2000/svg">
<path d="M24.313 4.74358C23.8495 4.2141 23.1888 3.92246 22.4527 3.92246H4.65832L4.47922 2.57969C4.28619 1.13316 3.27911 0 2.18639 0H0.878906C0.474358 0 0.146484 0.327873 0.146484 0.732422C0.146484 1.13697 0.474358 1.46484 0.878906 1.46484H2.18639C2.42138 1.46484 2.91901 1.96171 3.02715 2.77328L5.12371 18.4978C5.21603 19.191 5.57213 19.8399 6.1264 20.3251C6.53744 20.685 7.02324 20.9244 7.53212 21.0245C7.32479 21.4058 7.20692 21.8426 7.20692 22.3063C7.20692 23.7917 8.41541 25 9.90067 25C11.3859 25 12.5944 23.7917 12.5944 22.3063C12.5944 21.8637 12.4865 21.4462 12.2965 21.0775H16.1345C15.9445 21.4462 15.8365 21.8637 15.8365 22.3063C15.8365 23.7917 17.045 25 18.5303 25C20.0155 25 21.224 23.7917 21.224 22.3063C21.224 21.8637 21.1161 21.4462 20.9261 21.0775H22.8451C23.2494 21.0775 23.5775 20.7495 23.5775 20.3451C23.5775 19.9406 23.2494 19.6127 22.8451 19.6127H8.07018C7.35455 19.6127 6.67019 19.0134 6.57558 18.3041L6.42242 17.1549H12.1229C12.1231 17.1549 12.1233 17.1551 12.1235 17.1551C12.1237 17.1551 12.1239 17.1549 12.1243 17.1549H16.8297C16.8299 17.1549 16.8301 17.1551 16.8304 17.1551C16.8306 17.1551 16.8306 17.1549 16.8308 17.1549H20.8838C21.583 17.1549 22.2733 16.8877 22.8275 16.4026C23.3818 15.9174 23.7379 15.2683 23.8302 14.5752L24.8808 6.69594C24.9781 5.96638 24.7765 5.27306 24.313 4.74358ZM11.1296 22.3063C11.1296 22.9839 10.5783 23.5352 9.90067 23.5352C9.22318 23.5352 8.67176 22.9839 8.67176 22.3063C8.67176 21.6288 9.22318 21.0775 9.90067 21.0775C10.5783 21.0775 11.1296 21.6288 11.1296 22.3063ZM19.7592 22.3063C19.7592 22.9839 19.208 23.5352 18.5303 23.5352C17.8526 23.5352 17.3014 22.9839 17.3014 22.3063C17.3014 21.6288 17.8526 21.0775 18.5303 21.0775C19.208 21.0775 19.7592 21.6288 19.7592 22.3063ZM23.2107 5.7085C23.3921 5.91564 23.4695 6.19736 23.4287 6.50215L22.9883 9.80625H18.0048L18.2993 5.38731H22.4527C22.7604 5.38731 23.0295 5.50137 23.2107 5.7085ZM12.8094 15.69L12.5147 11.2711H16.4391L16.1444 15.69H12.8094ZM12.417 9.80625L12.1225 5.38731H16.8312L16.5367 9.80625H12.417ZM10.6544 5.38731L10.9489 9.80625H5.44262L4.85344 5.38731H10.6544ZM5.63793 11.2711H11.0466L11.3413 15.69H6.22711L5.63793 11.2711ZM20.8838 15.69H17.6125L17.9071 11.2711H22.793L22.3783 14.3816C22.2837 15.0909 21.5992 15.69 20.8838 15.69Z" fill="white"/>
</svg>
