<svg width="25" height="25" viewBox="0 0 25 25" fill="none" xmlns="http://www.w3.org/2000/svg">
<path d="M12.5191 5.38855C8.98069 5.38855 6.08984 8.27939 6.08984 11.8178C6.08984 13.6679 6.89928 15.4487 8.26376 16.6513C9.28133 17.6689 9.18883 19.8428 9.1657 19.8659C9.1657 19.9815 9.18883 20.074 9.28133 20.1665C9.35071 20.2359 9.46635 20.2822 9.55885 20.2822H15.4562C15.5718 20.2822 15.6643 20.2359 15.7337 20.1665C15.8031 20.0972 15.8493 19.9815 15.8493 19.8659C15.8493 19.8428 15.7337 17.6689 16.7513 16.6513C16.7744 16.6281 16.7975 16.605 16.8206 16.5819C18.162 15.3562 18.9483 13.6217 18.9483 11.8178C18.9483 8.27939 16.0575 5.38855 12.5191 5.38855ZM16.2194 16.05C16.1962 16.0731 16.15 16.1194 16.15 16.1425C15.248 17.1138 15.0861 18.7096 15.063 19.4727H9.95201C9.92888 18.7096 9.76699 17.0444 8.79567 16.05C7.56995 14.9862 6.85303 13.4367 6.85303 11.7947C6.85303 8.67255 9.37384 6.15173 12.4959 6.15173C15.6181 6.15173 18.1389 8.67255 18.1389 11.7947C18.1389 13.4367 17.4451 14.9862 16.2194 16.05Z" fill="white"/>
<path d="M12.496 7.03052C12.2879 7.03052 12.1028 7.21553 12.1028 7.42367C12.1028 7.63181 12.2879 7.81683 12.496 7.81683C14.8318 7.81683 16.7051 9.71322 16.7051 12.0259C16.7051 12.234 16.8901 12.419 17.0982 12.419C17.3064 12.419 17.4914 12.234 17.4914 12.0259C17.5145 9.27381 15.2712 7.03052 12.496 7.03052Z" fill="white"/>
<path d="M15.063 20.7216H9.9289C9.39699 20.7216 8.95758 21.161 8.95758 21.6929C8.95758 22.2248 9.39699 22.6642 9.9289 22.6642H15.0399C15.595 22.6411 16.0344 22.2248 16.0344 21.6929C16.0344 21.161 15.595 20.7216 15.063 20.7216ZM15.063 21.8548H9.9289C9.8364 21.8548 9.74389 21.7854 9.74389 21.6698C9.74389 21.5541 9.81327 21.4847 9.9289 21.4847H15.0399C15.1324 21.4847 15.2249 21.5541 15.2249 21.6698C15.2249 21.7854 15.1555 21.8548 15.063 21.8548Z" fill="white"/>
<path d="M14.2999 23.0574H10.6921C10.1602 23.0574 9.72076 23.4968 9.72076 24.0287C9.72076 24.5606 10.1602 25 10.6921 25H14.2999C14.8318 25 15.2712 24.5606 15.2712 24.0287C15.2712 23.4737 14.8318 23.0574 14.2999 23.0574ZM14.2999 24.1906H10.6921C10.5996 24.1906 10.5071 24.1212 10.5071 24.0056C10.5071 23.8899 10.5765 23.8206 10.6921 23.8206H14.2999C14.3924 23.8206 14.4849 23.8899 14.4849 24.0056C14.4849 24.1212 14.3924 24.1906 14.2999 24.1906Z" fill="white"/>
<path d="M12.496 3.46901C12.7273 3.46901 12.8892 3.284 12.8892 3.07586V0.393155C12.8892 0.185014 12.7041 0 12.496 0C12.2879 0 12.1028 0.185014 12.1028 0.393155V3.07586C12.1028 3.284 12.2879 3.46901 12.496 3.46901Z" fill="white"/>
<path d="M19.0408 1.98889C18.8558 1.85013 18.6245 1.91951 18.5089 2.0814L17.0287 4.30156C16.89 4.48658 16.9362 4.74097 17.1212 4.8566C17.1906 4.90286 17.26 4.92598 17.3294 4.92598C17.4681 4.92598 17.5838 4.8566 17.6532 4.74097L19.1333 2.5208C19.272 2.35892 19.2258 2.10452 19.0408 1.98889Z" fill="white"/>
<path d="M7.80126 4.8335C7.87064 4.8335 7.94002 4.81037 8.0094 4.76412C8.19441 4.64849 8.24067 4.39409 8.12503 4.20908L6.69118 1.96579C6.57554 1.78077 6.32115 1.73452 6.13613 1.85015C5.95112 1.96579 5.90487 2.22018 6.0205 2.40519L7.45436 4.64849C7.54687 4.78725 7.6625 4.8335 7.80126 4.8335Z" fill="white"/>
<path d="M5.00289 7.28493L2.66709 6.01296C2.48207 5.92046 2.22768 5.98984 2.13517 6.17485C2.01954 6.35987 2.08892 6.61426 2.29706 6.70677L4.63286 7.97874C4.70224 8.00186 4.7485 8.02499 4.81788 8.02499C4.95664 8.02499 5.0954 7.95561 5.16478 7.81685C5.25728 7.63184 5.1879 7.37744 5.00289 7.28493Z" fill="white"/>
<path d="M22.8798 6.17485C22.7873 5.98984 22.5329 5.92046 22.3479 6.01296L19.989 7.28493C19.804 7.37744 19.7346 7.63184 19.8271 7.81685C19.8965 7.95561 20.0353 8.02499 20.174 8.02499C20.2434 8.02499 20.3128 8.00186 20.359 7.97874L22.718 6.70677C22.903 6.61426 22.9723 6.35987 22.8798 6.17485Z" fill="white"/>
</svg>
